<?xml version="1.0" encoding="us-ascii" standalone="no"?><svg xmlns="http://www.w3.org/2000/svg" xmlns:xlink="http://www.w3.org/1999/xlink" contentStyleType="text/css" height="634px" preserveAspectRatio="none" style="width:318px;height:634px;background:#FFFFFF;" version="1.1" viewBox="0 0 318 634" width="318px" zoomAndPan="magnify"><defs/><g><path d="M19.5,7 L292,7 A12.5,12.5 0 0 1 304.5,19.5 L304.5,54.7031 L7,54.7031 L7,19.5 A12.5,12.5 0 0 1 19.5,7 " fill="#F1F1F1" style="stroke:#F1F1F1;stroke-width:1.0;"/><rect fill="none" height="621.4063" rx="12.5" ry="12.5" style="stroke:#181818;stroke-width:0.5;" width="297.5" x="7" y="7"/><line style="stroke:#181818;stroke-width:0.5;" x1="7" x2="304.5" y1="54.7031" y2="54.7031"/><line style="stroke:#181818;stroke-width:0.5;" x1="7" x2="304.5" y1="34.6094" y2="34.6094"/><text fill="#000000" font-family="sans-serif" font-size="14" lengthAdjust="spacing" textLength="45" x="133.25" y="26.5332">ATrack</text><text fill="#000000" font-family="sans-serif" font-size="12" lengthAdjust="spacing" textLength="91" x="12" y="47.0664">Traverse A* Path</text><g id="ATrack.Moving"><rect fill="#F1F1F1" height="52.7031" rx="12.5" ry="12.5" style="stroke:#181818;stroke-width:0.5;" width="113" x="136" y="122.7031"/><line style="stroke:#181818;stroke-width:0.5;" x1="136" x2="249" y1="150.3125" y2="150.3125"/><text fill="#000000" font-family="sans-serif" font-size="14" lengthAdjust="spacing" textLength="45" x="170" y="142.2363">Moving</text><text fill="#000000" font-family="sans-serif" font-size="12" lengthAdjust="spacing" textLength="93" x="141" y="167.7695">Moving To Target</text></g><g id="ATrack.Move"><rect fill="#F1F1F1" height="52.7031" rx="12.5" ry="12.5" style="stroke:#181818;stroke-width:0.5;" width="96" x="144.5" y="290.7031"/><line style="stroke:#181818;stroke-width:0.5;" x1="144.5" x2="240.5" y1="318.3125" y2="318.3125"/><text fill="#000000" font-family="sans-serif" font-size="14" lengthAdjust="spacing" textLength="34" x="175.5" y="310.2363">Move</text><text fill="#000000" font-family="sans-serif" font-size="12" lengthAdjust="spacing" textLength="76" x="149.5" y="335.7695">Move Forward</text></g><g id="ATrack.Turn"><rect fill="#F1F1F1" height="52.7031" rx="12.5" ry="12.5" style="stroke:#181818;stroke-width:0.5;" width="107" x="19" y="290.7031"/><line style="stroke:#181818;stroke-width:0.5;" x1="19" x2="126" y1="318.3125" y2="318.3125"/><text fill="#000000" font-family="sans-serif" font-size="14" lengthAdjust="spacing" textLength="30" x="57.5" y="310.2363">Turn</text><text fill="#000000" font-family="sans-serif" font-size="12" lengthAdjust="spacing" textLength="87" x="24" y="335.7695">Iterative Turning</text></g><g id="ATrack.Load"><rect fill="#F1F1F1" height="52.7031" rx="12.5" ry="12.5" style="stroke:#181818;stroke-width:0.5;" width="75" x="180" y="458.7031"/><line style="stroke:#181818;stroke-width:0.5;" x1="180" x2="255" y1="486.3125" y2="486.3125"/><text fill="#000000" font-family="sans-serif" font-size="14" lengthAdjust="spacing" textLength="32" x="201.5" y="478.2363">Load</text><text fill="#000000" font-family="sans-serif" font-size="12" lengthAdjust="spacing" textLength="55" x="185" y="503.7695">Load Next</text></g><g id="elem_if_a"><polygon fill="#F1F1F1" points="144.5,212.7031,156.5,224.7031,144.5,236.7031,132.5,224.7031,144.5,212.7031" style="stroke:#181818;stroke-width:0.5;"/></g><g id="elem_if_aa"><polygon fill="#F1F1F1" points="192.5,380.7031,204.5,392.7031,192.5,404.7031,180.5,392.7031,192.5,380.7031" style="stroke:#181818;stroke-width:0.5;"/></g><ellipse cx="192.5" cy="75.7031" fill="#222222" rx="10" ry="10" style="stroke:none;stroke-width:1.0;"/><g id="ATrack.Return"><rect fill="#F1F1F1" height="52.7031" rx="12.5" ry="12.5" style="stroke:#181818;stroke-width:0.5;" width="139" x="148" y="565.7031"/><line style="stroke:#181818;stroke-width:0.5;" x1="148" x2="287" y1="593.3125" y2="593.3125"/><text fill="#000000" font-family="sans-serif" font-size="14" lengthAdjust="spacing" textLength="43" x="196" y="585.2363">Return</text><a href="https://github.com/Tye-Buckingham/MComp-Lawn-Mower_Obstacle_Avoidance/tree/main/Images/main.svg" target="_top" title="https://github.com/Tye-Buckingham/MComp-Lawn-Mower_Obstacle_Avoidance/tree/main/Images/main.svg" xlink:actuate="onRequest" xlink:href="https://github.com/Tye-Buckingham/MComp-Lawn-Mower_Obstacle_Avoidance/tree/main/Images/main.svg" xlink:show="new" xlink:title="https://github.com/Tye-Buckingham/MComp-Lawn-Mower_Obstacle_Avoidance/tree/main/Images/main.svg" xlink:type="simple"><text fill="#0000FF" font-family="sans-serif" font-size="12" lengthAdjust="spacing" text-decoration="underline" textLength="119" x="153" y="610.7695">Return To Main Route</text></a></g><!--link *start*ATrack to Moving--><g id="link_*start*ATrack_Moving"><path d="M192.5,85.7631 C192.5,93.7731 192.5,105.9531 192.5,117.4331 " fill="none" id="*start*ATrack-to-Moving" style="stroke:#181818;stroke-width:1.0;"/><polygon fill="#181818" points="192.5,122.6331,196.5,113.6331,192.5,117.6331,188.5,113.6331,192.5,122.6331" style="stroke:#181818;stroke-width:1.0;"/></g><!--link Moving to if_a--><g id="link_Moving_if_a"><path d="M175.71,175.9131 C167.53,188.4331 158.12,202.8431 151.79,212.5331 " fill="none" id="Moving-to-if_a" style="stroke:#181818;stroke-width:1.0;"/><polygon fill="#181818" points="148.95,216.8831,157.2157,211.528,151.6805,212.6945,150.5139,207.1592,148.95,216.8831" style="stroke:#181818;stroke-width:1.0;"/></g><!--link if_a to Turn--><g id="link_if_a_Turn"><path d="M135.46,227.8931 C122.98,231.4031 100.66,239.4731 88.5,254.7031 C81.58,263.3731 77.63,274.7231 75.38,285.3031 " fill="none" id="if_a-to-Turn" style="stroke:#181818;stroke-width:1.0;"/><polygon fill="#181818" points="74.41,290.4231,80.0115,282.3223,75.3383,285.5101,72.1506,280.8369,74.41,290.4231" style="stroke:#181818;stroke-width:1.0;"/><text fill="#000000" font-family="sans-serif" font-size="13" lengthAdjust="spacing" textLength="66" x="89.5" y="269.1982">if obstacles</text></g><!--link if_a to Move--><g id="link_if_a_Move"><path d="M148.43,233.1131 C154.5,244.5531 166.49,267.1631 176.44,285.9131 " fill="none" id="if_a-to-Move" style="stroke:#181818;stroke-width:1.0;"/><polygon fill="#181818" points="178.91,290.5931,178.2239,280.7682,176.566,286.1766,171.1575,284.5186,178.91,290.5931" style="stroke:#181818;stroke-width:1.0;"/></g><!--link Move to Moving--><g id="link_Move_Moving"><path d="M192.5,290.6031 C192.5,261.1031 192.5,212.6431 192.5,181.0831 " fill="none" id="Move-to-Moving" style="stroke:#181818;stroke-width:1.0;"/><polygon fill="#181818" points="192.5,175.7731,188.5,184.7731,192.5,180.7731,196.5,184.7731,192.5,175.7731" style="stroke:#181818;stroke-width:1.0;"/><text fill="#000000" font-family="sans-serif" font-size="13" lengthAdjust="spacing" textLength="68" x="193.5" y="230.1982">not reached</text></g><!--link Move to if_aa--><g id="link_Move_if_aa"><path d="M192.5,343.9131 C192.5,354.4331 192.5,366.2831 192.5,375.5531 " fill="none" id="Move-to-if_aa" style="stroke:#181818;stroke-width:1.0;"/><polygon fill="#181818" points="192.5,380.6831,196.5,371.6831,192.5,375.6831,188.5,371.6831,192.5,380.6831" style="stroke:#181818;stroke-width:1.0;"/></g><!--link if_aa to Load--><g id="link_if_aa_Load"><path d="M194.9,402.3831 C198.14,414.1031 204.08,435.6231 209.06,453.6531 " fill="none" id="if_aa-to-Load" style="stroke:#181818;stroke-width:1.0;"/><polygon fill="#181818" points="210.44,458.6331,211.9017,448.8933,209.1099,453.8133,204.1899,451.0215,210.44,458.6331" style="stroke:#181818;stroke-width:1.0;"/><text fill="#000000" font-family="sans-serif" font-size="13" lengthAdjust="spacing" textLength="56" x="206.5" y="437.1982">if reached</text></g><!--link if_aa to Load--><g id="link_if_aa_Load"><path d="M183.05,395.3531 C159.29,399.9331 100.15,414.2331 117.5,440.7031 C130.28,460.2031 153.9,471.0031 174.98,476.9731 " fill="none" id="if_aa-to-Load-1" style="stroke:#181818;stroke-width:1.0;"/><polygon fill="#181818" points="179.99,478.3131,172.3223,472.132,175.1584,477.0266,170.2638,479.8627,179.99,478.3131" style="stroke:#181818;stroke-width:1.0;"/><text fill="#000000" font-family="sans-serif" font-size="13" lengthAdjust="spacing" textLength="78" x="118.5" y="437.1982">if no progress</text></g><!--link Load to Moving--><g id="link_Load_Moving"><path d="M254,458.3331 C272.25,442.1631 290.5,419.5431 290.5,393.7031 C290.5,223.7031 290.5,223.7031 290.5,223.7031 C290.5,201.0631 273.56,184.5431 253.76,172.9731 " fill="none" id="Load-to-Moving" style="stroke:#181818;stroke-width:1.0;"/><polygon fill="#181818" points="249.22,170.4231,255.1142,178.3135,253.5813,172.8683,259.0265,171.3354,249.22,170.4231" style="stroke:#181818;stroke-width:1.0;"/></g><!--link Load to Return--><g id="link_Load_Return"><path d="M217.5,511.8931 C217.5,526.5031 217.5,544.9131 217.5,560.3231 " fill="none" id="Load-to-Return" style="stroke:#181818;stroke-width:1.0;"/><polygon fill="#181818" points="217.5,565.4231,221.5,556.4231,217.5,560.4231,213.5,556.4231,217.5,565.4231" style="stroke:#181818;stroke-width:1.0;"/><text fill="#000000" font-family="sans-serif" font-size="13" lengthAdjust="spacing" textLength="33" x="218.5" y="544.1982">if final</text></g><!--SRC=[RLBBQiCm4BptA_OSS7Gt8P0M2e4uBS6t4C96tjWYiTP8ijDI-k-LPSVDmpf8zinePdVH8ZKeJp7ueo5Z2HOJ-4HNl81Vrg7pI930Ju3QbN2ZT1xt9wGCAPgStAs00atmpkQ29Xkej3OwXgKZWqvvlltt9WE_OipYiCEQllujkrBKSOymcyc2bQJvV8GTfRUJ7KJHl2_ueO_0j5S7FAIqQ5UiEW8VV88yattMj5tUDNwJ58Dc1uPG5fGzYqAzTuwTPJS37_juSqIY6Ih3kI5hxsOurk-0RyXTEpigZUT1SIMssyAvoiP2vCeLzM4gkHJfDqMljJnvom9BaRnnMKKhlEWeuGkP_KS_fFsYOPMXbYIS8H8bAYsM9UPam_VKDdcVrBwTn4EmuThHRXSA-Vq3]--></g></svg>