<?xml version="1.0" encoding="us-ascii" standalone="no"?><svg xmlns="http://www.w3.org/2000/svg" xmlns:xlink="http://www.w3.org/1999/xlink" contentStyleType="text/css" height="466px" preserveAspectRatio="none" style="width:418px;height:466px;background:#FFFFFF;" version="1.1" viewBox="0 0 418 466" width="418px" zoomAndPan="magnify"><defs/><g><path d="M19.5,7 L392.5,7 A12.5,12.5 0 0 1 405,19.5 L405,54.7031 L7,54.7031 L7,19.5 A12.5,12.5 0 0 1 19.5,7 " fill="#F1F1F1" style="stroke:#F1F1F1;stroke-width:1.0;"/><rect fill="none" height="453.4063" rx="12.5" ry="12.5" style="stroke:#181818;stroke-width:0.5;" width="398" x="7" y="7"/><line style="stroke:#181818;stroke-width:0.5;" x1="7" x2="405" y1="54.7031" y2="54.7031"/><line style="stroke:#181818;stroke-width:0.5;" x1="7" x2="405" y1="34.6094" y2="34.6094"/><text fill="#000000" font-family="sans-serif" font-size="14" lengthAdjust="spacing" textLength="86" x="163" y="26.5332">BackOnTrack</text><text fill="#000000" font-family="sans-serif" font-size="12" lengthAdjust="spacing" textLength="112" x="12" y="47.0664">Get Back On Course</text><g id="BackOnTrack.Moving"><rect fill="#F1F1F1" height="52.7031" rx="12.5" ry="12.5" style="stroke:#181818;stroke-width:0.5;" width="113" x="222" y="122.7031"/><line style="stroke:#181818;stroke-width:0.5;" x1="222" x2="335" y1="150.3125" y2="150.3125"/><text fill="#000000" font-family="sans-serif" font-size="14" lengthAdjust="spacing" textLength="45" x="256" y="142.2363">Moving</text><text fill="#000000" font-family="sans-serif" font-size="12" lengthAdjust="spacing" textLength="93" x="227" y="167.7695">Moving To Target</text></g><g id="BackOnTrack.Move"><rect fill="#F1F1F1" height="52.7031" rx="12.5" ry="12.5" style="stroke:#181818;stroke-width:0.5;" width="96" x="273.5" y="290.7031"/><line style="stroke:#181818;stroke-width:0.5;" x1="273.5" x2="369.5" y1="318.3125" y2="318.3125"/><text fill="#000000" font-family="sans-serif" font-size="14" lengthAdjust="spacing" textLength="34" x="304.5" y="310.2363">Move</text><text fill="#000000" font-family="sans-serif" font-size="12" lengthAdjust="spacing" textLength="76" x="278.5" y="335.7695">Move Forward</text></g><g id="BackOnTrack.Turn"><rect fill="#F1F1F1" height="52.7031" rx="12.5" ry="12.5" style="stroke:#181818;stroke-width:0.5;" width="107" x="19" y="290.7031"/><line style="stroke:#181818;stroke-width:0.5;" x1="19" x2="126" y1="318.3125" y2="318.3125"/><text fill="#000000" font-family="sans-serif" font-size="14" lengthAdjust="spacing" textLength="30" x="57.5" y="310.2363">Turn</text><text fill="#000000" font-family="sans-serif" font-size="12" lengthAdjust="spacing" textLength="87" x="24" y="335.7695">Iterative Turning</text></g><g id="elem_if_b"><polygon fill="#F1F1F1" points="236.5,212.7031,248.5,224.7031,236.5,236.7031,224.5,224.7031,236.5,212.7031" style="stroke:#181818;stroke-width:0.5;"/></g><ellipse cx="278.5" cy="75.7031" fill="#222222" rx="10" ry="10" style="stroke:none;stroke-width:1.0;"/><g id="BackOnTrack.ATrack"><rect fill="#F1F1F1" height="52.7031" rx="12.5" ry="12.5" style="stroke:#181818;stroke-width:0.5;" width="111" x="144" y="290.7031"/><line style="stroke:#181818;stroke-width:0.5;" x1="144" x2="255" y1="318.3125" y2="318.3125"/><text fill="#000000" font-family="sans-serif" font-size="14" lengthAdjust="spacing" textLength="45" x="177" y="310.2363">ATrack</text><a href="https://github.com/Tye-Buckingham/MComp-Lawn-Mower_Obstacle_Avoidance/tree/main/Images/atrack.svg" target="_top" title="https://github.com/Tye-Buckingham/MComp-Lawn-Mower_Obstacle_Avoidance/tree/main/Images/atrack.svg" xlink:actuate="onRequest" xlink:href="https://github.com/Tye-Buckingham/MComp-Lawn-Mower_Obstacle_Avoidance/tree/main/Images/atrack.svg" xlink:show="new" xlink:title="https://github.com/Tye-Buckingham/MComp-Lawn-Mower_Obstacle_Avoidance/tree/main/Images/atrack.svg" xlink:type="simple"><text fill="#0000FF" font-family="sans-serif" font-size="12" lengthAdjust="spacing" text-decoration="underline" textLength="91" x="149" y="335.7695">Traverse A* Path</text></a></g><g id="BackOnTrack.Return"><rect fill="#F1F1F1" height="52.7031" rx="12.5" ry="12.5" style="stroke:#181818;stroke-width:0.5;" width="139" x="252" y="397.7031"/><line style="stroke:#181818;stroke-width:0.5;" x1="252" x2="391" y1="425.3125" y2="425.3125"/><text fill="#000000" font-family="sans-serif" font-size="14" lengthAdjust="spacing" textLength="43" x="300" y="417.2363">Return</text><a href="https://github.com/Tye-Buckingham/MComp-Lawn-Mower_Obstacle_Avoidance/tree/main/Images/main.svg" target="_top" title="https://github.com/Tye-Buckingham/MComp-Lawn-Mower_Obstacle_Avoidance/tree/main/Images/main.svg" xlink:actuate="onRequest" xlink:href="https://github.com/Tye-Buckingham/MComp-Lawn-Mower_Obstacle_Avoidance/tree/main/Images/main.svg" xlink:show="new" xlink:title="https://github.com/Tye-Buckingham/MComp-Lawn-Mower_Obstacle_Avoidance/tree/main/Images/main.svg" xlink:type="simple"><text fill="#0000FF" font-family="sans-serif" font-size="12" lengthAdjust="spacing" text-decoration="underline" textLength="119" x="257" y="442.7695">Return To Main Route</text></a></g><!--link *start*BackOnTrack to Moving--><g id="link_*start*BackOnTrack_Moving"><path d="M278.5,85.7631 C278.5,93.7731 278.5,105.9531 278.5,117.4331 " fill="none" id="*start*BackOnTrack-to-Moving" style="stroke:#181818;stroke-width:1.0;"/><polygon fill="#181818" points="278.5,122.6331,282.5,113.6331,278.5,117.6331,274.5,113.6331,278.5,122.6331" style="stroke:#181818;stroke-width:1.0;"/></g><!--link Moving to if_b--><g id="link_Moving_if_b"><path d="M263.81,175.9131 C256.74,188.2931 248.61,202.5131 243.07,212.2031 " fill="none" id="Moving-to-if_b" style="stroke:#181818;stroke-width:1.0;"/><polygon fill="#181818" points="240.58,216.5631,248.5079,210.7194,243.053,212.2175,241.5549,206.7626,240.58,216.5631" style="stroke:#181818;stroke-width:1.0;"/></g><!--link if_b to Turn--><g id="link_if_b_Turn"><path d="M226.1,226.3031 C205.29,227.9431 157.66,233.8631 124.5,254.7031 C111.74,262.7231 100.51,274.8831 91.78,286.2831 " fill="none" id="if_b-to-Turn" style="stroke:#181818;stroke-width:1.0;"/><polygon fill="#181818" points="88.68,290.4431,97.269,285.6234,91.6708,286.4363,90.858,280.8381,88.68,290.4431" style="stroke:#181818;stroke-width:1.0;"/><text fill="#000000" font-family="sans-serif" font-size="13" lengthAdjust="spacing" textLength="66" x="125.5" y="269.1982">if obstacles</text></g><!--link if_b to Move--><g id="link_if_b_Move"><path d="M244.2,229.3731 C253.75,234.2131 270.17,243.4231 281.5,254.7031 C290.66,263.8231 298.85,275.3831 305.39,286.0031 " fill="none" id="if_b-to-Move" style="stroke:#181818;stroke-width:1.0;"/><polygon fill="#181818" points="308.09,290.4931,306.8895,280.7177,305.5175,286.2057,300.0296,284.8337,308.09,290.4931" style="stroke:#181818;stroke-width:1.0;"/></g><!--link if_b to ATrack--><g id="link_if_b_ATrack"><path d="M229,229.4031 C220.58,234.0331 207.33,242.8031 201.5,254.7031 C196.94,264.0131 195.55,275.1131 195.58,285.2931 " fill="none" id="if_b-to-ATrack" style="stroke:#181818;stroke-width:1.0;"/><polygon fill="#181818" points="195.72,290.5231,199.4606,281.4123,195.5768,285.5252,191.4639,281.6414,195.72,290.5231" style="stroke:#181818;stroke-width:1.0;"/><text fill="#000000" font-family="sans-serif" font-size="13" lengthAdjust="spacing" textLength="78" x="202.5" y="269.1982">if no progress</text></g><!--link Move to Moving--><g id="link_Move_Moving"><path d="M314.87,290.6031 C307.19,260.9731 294.57,212.2431 286.4,180.6831 " fill="none" id="Move-to-Moving" style="stroke:#181818;stroke-width:1.0;"/><polygon fill="#181818" points="285.12,175.7731,283.4828,185.4849,286.3629,180.6162,291.2317,183.4963,285.12,175.7731" style="stroke:#181818;stroke-width:1.0;"/><text fill="#000000" font-family="sans-serif" font-size="13" lengthAdjust="spacing" textLength="68" x="302.5" y="230.1982">not reached</text></g><!--link Move to Return--><g id="link_Move_Return"><path d="M321.5,343.8931 C321.5,358.5031 321.5,376.9131 321.5,392.3231 " fill="none" id="Move-to-Return" style="stroke:#181818;stroke-width:1.0;"/><polygon fill="#181818" points="321.5,397.4231,325.5,388.4231,321.5,392.4231,317.5,388.4231,321.5,397.4231" style="stroke:#181818;stroke-width:1.0;"/><text fill="#000000" font-family="sans-serif" font-size="13" lengthAdjust="spacing" textLength="46" x="322.5" y="376.1982">reached</text></g><!--SRC=[jL9DQm8n4BtxA-OihBal8gZG8dInoDv4P8pZRh2Ro6HsfPJ-zoPhN6mzDvSaxxsPz_AnG7rUsvB3bCCh2Ip22jOMbgvbJoClADI3IGLV8qYZS9snLPvcA1sKo1N9eu1wck35yHNvE51bopQ7bH2ZcC37VMWoy3TVSzeVO3hLjJEQPhE1tOvta6MpvFmdKC_4oW7lsqJqvcfEu0x1G7-GVzR4kC_eF5rHgBKEBkmg9kz_dVGXKHv40aoeQpe-YpOaVP2_Whl9TbkBN7okL6MaRWyJxHfLVbAsQFKvjA-nKSNIDPVi3QysAzoLUBzEHzhFEsUEQ3KfOIBLeB5grM15Ng54WudlmcinTXHU6EPZU4UfTxiXnZtUlyM8wpx4pId-d290i76jK0ho_GC0]--></g></svg>