<?xml version="1.0" encoding="us-ascii" standalone="no"?><svg xmlns="http://www.w3.org/2000/svg" xmlns:xlink="http://www.w3.org/1999/xlink" contentStyleType="text/css" height="630px" preserveAspectRatio="none" style="width:791px;height:630px;background:#FFFFFF;" version="1.1" viewBox="0 0 791 630" width="791px" zoomAndPan="magnify"><defs/><g><path d="M19.5,7 L765.5,7 A12.5,12.5 0 0 1 778,19.5 L778,54.7031 L7,54.7031 L7,19.5 A12.5,12.5 0 0 1 19.5,7 " fill="#F1F1F1" style="stroke:#F1F1F1;stroke-width:1.0;"/><rect fill="none" height="617.7031" rx="12.5" ry="12.5" style="stroke:#181818;stroke-width:0.5;" width="771" x="7" y="7"/><line style="stroke:#181818;stroke-width:0.5;" x1="7" x2="778" y1="54.7031" y2="54.7031"/><line style="stroke:#181818;stroke-width:0.5;" x1="7" x2="778" y1="34.6094" y2="34.6094"/><text fill="#000000" font-family="sans-serif" font-size="14" lengthAdjust="spacing" textLength="57" x="364" y="26.5332">Traverse</text><text fill="#000000" font-family="sans-serif" font-size="12" lengthAdjust="spacing" textLength="113" x="12" y="47.0664">Traverse Main Route</text><g id="Traverse.Moving"><rect fill="#F1F1F1" height="52.7031" rx="12.5" ry="12.5" style="stroke:#181818;stroke-width:0.5;" width="113" x="286.5" y="122.7031"/><line style="stroke:#181818;stroke-width:0.5;" x1="286.5" x2="399.5" y1="150.3125" y2="150.3125"/><text fill="#000000" font-family="sans-serif" font-size="14" lengthAdjust="spacing" textLength="45" x="320.5" y="142.2363">Moving</text><text fill="#000000" font-family="sans-serif" font-size="12" lengthAdjust="spacing" textLength="93" x="291.5" y="167.7695">Moving To Target</text></g><g id="Traverse.OffCourse"><rect fill="#F1F1F1" height="52.7031" rx="12.5" ry="12.5" style="stroke:#181818;stroke-width:0.5;" width="132" x="84" y="290.7031"/><line style="stroke:#181818;stroke-width:0.5;" x1="84" x2="216" y1="318.3125" y2="318.3125"/><text fill="#000000" font-family="sans-serif" font-size="14" lengthAdjust="spacing" textLength="65" x="117.5" y="310.2363">OffCourse</text><text fill="#000000" font-family="sans-serif" font-size="12" lengthAdjust="spacing" textLength="112" x="89" y="335.7695">Back-On-Track Point</text></g><g id="Traverse.NoProgress"><rect fill="#F1F1F1" height="52.7031" rx="12.5" ry="12.5" style="stroke:#181818;stroke-width:0.5;" width="94" x="234" y="290.7031"/><line style="stroke:#181818;stroke-width:0.5;" x1="234" x2="328" y1="318.3125" y2="318.3125"/><text fill="#000000" font-family="sans-serif" font-size="14" lengthAdjust="spacing" textLength="74" x="244" y="310.2363">NoProgress</text><text fill="#000000" font-family="sans-serif" font-size="12" lengthAdjust="spacing" textLength="40" x="239" y="335.7695">A* Path</text></g><g id="Traverse.LoadPoint"><rect fill="#F1F1F1" height="52.7031" rx="12.5" ry="12.5" style="stroke:#181818;stroke-width:0.5;" width="106" x="212" y="487.7031"/><line style="stroke:#181818;stroke-width:0.5;" x1="212" x2="318" y1="515.3125" y2="515.3125"/><text fill="#000000" font-family="sans-serif" font-size="14" lengthAdjust="spacing" textLength="64" x="233" y="507.2363">LoadPoint</text><text fill="#000000" font-family="sans-serif" font-size="12" lengthAdjust="spacing" textLength="86" x="217" y="532.7695">Load Next Point</text></g><g id="Traverse.Turn"><rect fill="#F1F1F1" height="52.7031" rx="12.5" ry="12.5" style="stroke:#181818;stroke-width:0.5;" width="107" x="456.5" y="290.7031"/><line style="stroke:#181818;stroke-width:0.5;" x1="456.5" x2="563.5" y1="318.3125" y2="318.3125"/><text fill="#000000" font-family="sans-serif" font-size="14" lengthAdjust="spacing" textLength="30" x="495" y="310.2363">Turn</text><text fill="#000000" font-family="sans-serif" font-size="12" lengthAdjust="spacing" textLength="87" x="461.5" y="335.7695">Iterative Turning</text></g><g id="Traverse.Move"><rect fill="#F1F1F1" height="52.7031" rx="12.5" ry="12.5" style="stroke:#181818;stroke-width:0.5;" width="92" x="346" y="290.7031"/><line style="stroke:#181818;stroke-width:0.5;" x1="346" x2="438" y1="318.3125" y2="318.3125"/><text fill="#000000" font-family="sans-serif" font-size="14" lengthAdjust="spacing" textLength="34" x="375" y="310.2363">Move</text><text fill="#000000" font-family="sans-serif" font-size="12" lengthAdjust="spacing" textLength="72" x="351" y="335.7695">Move Foward</text></g><g id="elem_if_obstacles"><polygon fill="#F1F1F1" points="343,212.7031,355,224.7031,343,236.7031,331,224.7031,343,212.7031" style="stroke:#181818;stroke-width:0.5;"/></g><g id="elem_if_reached"><polygon fill="#F1F1F1" points="439,395.2031,451,407.2031,439,419.2031,427,407.2031,439,395.2031" style="stroke:#181818;stroke-width:0.5;"/></g><g id="elem_if_path"><polygon fill="#F1F1F1" points="281,395.2031,293,407.2031,281,419.2031,269,407.2031,281,395.2031" style="stroke:#181818;stroke-width:0.5;"/></g><ellipse cx="343" cy="75.7031" fill="#222222" rx="10" ry="10" style="stroke:none;stroke-width:1.0;"/><g id="Traverse.BackOnTrack"><rect fill="#F1F1F1" height="52.7031" rx="12.5" ry="12.5" style="stroke:#181818;stroke-width:0.5;" width="188" x="49" y="380.7031"/><line style="stroke:#181818;stroke-width:0.5;" x1="49" x2="237" y1="408.3125" y2="408.3125"/><text fill="#000000" font-family="sans-serif" font-size="14" lengthAdjust="spacing" textLength="86" x="100" y="400.2363">BackOnTrack</text><a href="https://github.com/Tye-Buckingham/MComp-Lawn-Mower_Obstacle_Avoidance/tree/main/Images/atrack.svg" target="_top" title="https://github.com/Tye-Buckingham/MComp-Lawn-Mower_Obstacle_Avoidance/tree/main/Images/atrack.svg" xlink:actuate="onRequest" xlink:href="https://github.com/Tye-Buckingham/MComp-Lawn-Mower_Obstacle_Avoidance/tree/main/Images/atrack.svg" xlink:show="new" xlink:title="https://github.com/Tye-Buckingham/MComp-Lawn-Mower_Obstacle_Avoidance/tree/main/Images/atrack.svg" xlink:type="simple"><text fill="#0000FF" font-family="sans-serif" font-size="12" lengthAdjust="spacing" text-decoration="underline" textLength="168" x="54" y="425.7695">Traverse Back-On-Track Route</text></a></g><g id="Traverse.ATrack"><rect fill="#F1F1F1" height="52.7031" rx="12.5" ry="12.5" style="stroke:#181818;stroke-width:0.5;" width="111" x="502.5" y="487.7031"/><line style="stroke:#181818;stroke-width:0.5;" x1="502.5" x2="613.5" y1="515.3125" y2="515.3125"/><text fill="#000000" font-family="sans-serif" font-size="14" lengthAdjust="spacing" textLength="45" x="535.5" y="507.2363">ATrack</text><a href="https://github.com/Tye-Buckingham/MComp-Lawn-Mower_Obstacle_Avoidance/tree/main/Images/atrack.svg" target="_top" title="https://github.com/Tye-Buckingham/MComp-Lawn-Mower_Obstacle_Avoidance/tree/main/Images/atrack.svg" xlink:actuate="onRequest" xlink:href="https://github.com/Tye-Buckingham/MComp-Lawn-Mower_Obstacle_Avoidance/tree/main/Images/atrack.svg" xlink:show="new" xlink:title="https://github.com/Tye-Buckingham/MComp-Lawn-Mower_Obstacle_Avoidance/tree/main/Images/atrack.svg" xlink:type="simple"><text fill="#0000FF" font-family="sans-serif" font-size="12" lengthAdjust="spacing" text-decoration="underline" textLength="91" x="507.5" y="532.7695">Traverse A* Path</text></a></g><ellipse cx="265" cy="604.7031" fill="none" rx="10" ry="10" style="stroke:#222222;stroke-width:1.0;"/><ellipse cx="265.5" cy="605.2031" fill="#222222" rx="6" ry="6" style="stroke:none;stroke-width:1.0;"/><!--link *start*Traverse to Moving--><g id="link_*start*Traverse_Moving"><path d="M343,85.7631 C343,93.7731 343,105.9531 343,117.4331 " fill="none" id="*start*Traverse-to-Moving" style="stroke:#181818;stroke-width:1.0;"/><polygon fill="#181818" points="343,122.6331,347,113.6331,343,117.6331,339,113.6331,343,122.6331" style="stroke:#181818;stroke-width:1.0;"/></g><!--link Moving to if_obstacles--><g id="link_Moving_if_obstacles"><path d="M343,175.9131 C343,186.4331 343,198.2831 343,207.5531 " fill="none" id="Moving-to-if_obstacles" style="stroke:#181818;stroke-width:1.0;"/><polygon fill="#181818" points="343,212.6831,347,203.6831,343,207.6831,339,203.6831,343,212.6831" style="stroke:#181818;stroke-width:1.0;"/></g><!--link if_obstacles to Turn--><g id="link_if_obstacles_Turn"><path d="M350.07,229.6331 C360.08,235.2031 378.95,245.7131 395,254.7031 C409.24,262.6731 412.66,264.9131 427,272.7031 C436.42,277.8231 446.49,283.1831 456.26,288.3331 " fill="none" id="if_obstacles-to-Turn" style="stroke:#181818;stroke-width:1.0;"/><polygon fill="#181818" points="460.72,290.6831,454.6156,282.9542,456.2945,288.3562,450.8925,290.035,460.72,290.6831" style="stroke:#181818;stroke-width:1.0;"/><text fill="#000000" font-family="sans-serif" font-size="13" lengthAdjust="spacing" textLength="66" x="428" y="269.1982">if obstacles</text></g><!--link Turn to Moving--><g id="link_Turn_Moving"><path d="M507.94,290.5531 C506,278.8031 502.24,265.1931 495,254.7031 C472.21,221.6631 435.3,195.9231 403.56,178.2631 " fill="none" id="Turn-to-Moving" style="stroke:#181818;stroke-width:1.0;"/><polygon fill="#181818" points="398.92,175.7131,404.8949,183.5426,403.3062,178.1134,408.7354,176.5246,398.92,175.7131" style="stroke:#181818;stroke-width:1.0;"/></g><!--link if_obstacles to OffCourse--><g id="link_if_obstacles_OffCourse"><path d="M332.3,226.1831 C309.31,227.6031 254.03,233.1831 214,254.7031 C199.12,262.7031 185.25,275.1231 174.26,286.7131 " fill="none" id="if_obstacles-to-OffCourse" style="stroke:#181818;stroke-width:1.0;"/><polygon fill="#181818" points="170.64,290.6131,179.7056,286.7642,174.0521,286.9583,173.8579,281.3048,170.64,290.6131" style="stroke:#181818;stroke-width:1.0;"/><text fill="#000000" font-family="sans-serif" font-size="13" lengthAdjust="spacing" textLength="66" x="215" y="269.1982">if off course</text></g><!--link if_obstacles to NoProgress--><g id="link_if_obstacles_NoProgress"><path d="M334.41,228.2131 C323.04,232.0031 303.25,240.3131 293,254.7031 C286.65,263.6131 283.44,275.0131 281.88,285.5631 " fill="none" id="if_obstacles-to-NoProgress" style="stroke:#181818;stroke-width:1.0;"/><polygon fill="#181818" points="281.24,290.6631,286.3164,282.2234,281.8549,285.7011,278.3772,281.2395,281.24,290.6631" style="stroke:#181818;stroke-width:1.0;"/><text fill="#000000" font-family="sans-serif" font-size="13" lengthAdjust="spacing" textLength="78" x="294" y="269.1982">if no progress</text></g><!--link OffCourse to Moving--><g id="link_OffCourse_Moving"><path d="M162.15,290.5331 C168.5,278.7731 177.03,265.1731 187,254.7031 C216.47,223.7731 256.65,197.1231 288.85,178.4731 " fill="none" id="OffCourse-to-Moving" style="stroke:#181818;stroke-width:1.0;"/><polygon fill="#181818" points="293.54,175.7831,283.742,176.7823,289.2005,178.2669,287.716,183.7255,293.54,175.7831" style="stroke:#181818;stroke-width:1.0;"/></g><!--link LoadPoint to Moving--><g id="link_LoadPoint_Moving"><path d="M211.71,513.0731 C139.1,509.7631 18,491.7231 18,408.2031 C18,223.7031 18,223.7031 18,223.7031 C18,170.3331 186.83,155.7131 281.12,151.7131 " fill="none" id="LoadPoint-to-Moving" style="stroke:#181818;stroke-width:1.0;"/><polygon fill="#181818" points="286.39,151.4931,277.227,147.8822,281.3946,151.7072,277.5695,155.8748,286.39,151.4931" style="stroke:#181818;stroke-width:1.0;"/></g><!--link if_obstacles to Move--><g id="link_if_obstacles_Move"><path d="M350.15,229.8731 C357.96,234.8031 370.25,243.7331 377,254.7031 C382.69,263.9531 386.23,275.2231 388.42,285.5831 " fill="none" id="if_obstacles-to-Move" style="stroke:#181818;stroke-width:1.0;"/><polygon fill="#181818" points="389.39,290.5831,391.5956,280.9844,388.4341,285.6753,383.7432,282.5138,389.39,290.5831" style="stroke:#181818;stroke-width:1.0;"/></g><!--link Move to if_reached--><g id="link_Move_if_reached"><path d="M405.85,344.1331 C414.64,360.6031 425.63,381.1631 432.48,393.9931 " fill="none" id="Move-to-if_reached" style="stroke:#181818;stroke-width:1.0;"/><polygon fill="#181818" points="434.97,398.6631,434.2592,388.84,432.6148,394.2525,427.2022,392.6082,434.97,398.6631" style="stroke:#181818;stroke-width:1.0;"/></g><!--link if_reached to LoadPoint--><g id="link_if_reached_LoadPoint"><path d="M438.16,418.4731 C436.5,432.1031 431.56,456.0531 417,469.7031 C391.72,493.4031 354.4,504.3031 323.08,509.2731 " fill="none" id="if_reached-to-LoadPoint" style="stroke:#181818;stroke-width:1.0;"/><polygon fill="#181818" points="318.1,510.0131,327.5945,512.6311,323.0445,509.27,326.4056,504.72,318.1,510.0131" style="stroke:#181818;stroke-width:1.0;"/><text fill="#000000" font-family="sans-serif" font-size="13" lengthAdjust="spacing" textLength="83" x="431" y="466.1982">reached target</text></g><!--link if_reached to Moving--><g id="link_if_reached_Moving"><path d="M449.09,405.0831 C475.13,401.5931 544.59,388.3031 573,343.7031 C585.66,323.8331 582.84,312.1031 573,290.7031 C542.05,223.4131 461.43,185.6131 404.4,166.5731 " fill="none" id="if_reached-to-Moving" style="stroke:#181818;stroke-width:1.0;"/><polygon fill="#181818" points="399.65,165.0131,406.9591,171.6144,404.4019,166.5686,409.4478,164.0114,399.65,165.0131" style="stroke:#181818;stroke-width:1.0;"/><text fill="#000000" font-family="sans-serif" font-size="13" lengthAdjust="spacing" textLength="68" x="563" y="269.1982">not reached</text></g><!--link OffCourse to BackOnTrack--><g id="link_OffCourse_BackOnTrack"><path d="M147.94,344.1331 C147.16,353.8831 146.27,365.0831 145.46,375.2531 " fill="none" id="OffCourse-to-BackOnTrack" style="stroke:#181818;stroke-width:1.0;"/><polygon fill="#181818" points="145.05,380.4631,149.7323,371.7985,145.4357,375.478,141.7561,371.1814,145.05,380.4631" style="stroke:#181818;stroke-width:1.0;"/></g><!--link BackOnTrack to Moving--><g id="link_BackOnTrack_Moving"><path d="M104.49,380.6131 C92.76,370.6231 81.32,358.0931 75,343.7031 C59.05,307.3731 56.71,285.2831 82,254.7031 C131.77,194.5231 221.28,168.7431 281.42,157.8831 " fill="none" id="BackOnTrack-to-Moving" style="stroke:#181818;stroke-width:1.0;"/><polygon fill="#181818" points="286.42,156.9931,276.861,154.6212,281.4964,157.8637,278.2539,162.499,286.42,156.9931" style="stroke:#181818;stroke-width:1.0;"/><text fill="#000000" font-family="sans-serif" font-size="13" lengthAdjust="spacing" textLength="85" x="83" y="269.1982">once complete</text></g><!--link NoProgress to if_path--><g id="link_NoProgress_if_path"><path d="M281,344.1331 C281,358.8531 281,376.8531 281,389.6731 " fill="none" id="NoProgress-to-if_path" style="stroke:#181818;stroke-width:1.0;"/><polygon fill="#181818" points="281,394.8231,285,385.8231,281,389.8231,277,385.8231,281,394.8231" style="stroke:#181818;stroke-width:1.0;"/></g><!--link if_path to ATrack--><g id="link_if_path_ATrack"><path d="M287.62,412.7931 C298.6,420.4831 321.11,436.6031 339,451.7031 C347.89,459.2031 347.72,464.2631 358,469.7031 C401.23,492.5531 455.78,503.4131 496.98,508.5631 " fill="none" id="if_path-to-ATrack" style="stroke:#181818;stroke-width:1.0;"/><polygon fill="#181818" points="502.19,509.1931,493.7359,504.1407,497.2262,508.5923,492.7746,512.0827,502.19,509.1931" style="stroke:#181818;stroke-width:1.0;"/><text fill="#000000" font-family="sans-serif" font-size="13" lengthAdjust="spacing" textLength="53" x="359" y="466.1982">if A* path</text></g><!--link if_path to LoadPoint--><g id="link_if_path_LoadPoint"><path d="M277.46,416.0231 C273.79,424.5731 268.27,438.8031 266,451.7031 C264.25,461.6431 263.66,472.6331 263.6,482.5331 " fill="none" id="if_path-to-LoadPoint" style="stroke:#181818;stroke-width:1.0;"/><polygon fill="#181818" points="263.62,487.6031,267.5943,478.5917,263.6057,482.6031,259.5943,478.6146,263.62,487.6031" style="stroke:#181818;stroke-width:1.0;"/><text fill="#000000" font-family="sans-serif" font-size="13" lengthAdjust="spacing" textLength="71" x="267" y="466.1982">if A* no path</text></g><!--link LoadPoint to *end*Traverse--><g id="link_LoadPoint_*end*Traverse"><path d="M265,540.8031 C265,556.5231 265,576.0931 265,589.1931 " fill="none" id="LoadPoint-to-*end*Traverse" style="stroke:#181818;stroke-width:1.0;"/><polygon fill="#181818" points="265,594.3831,269,585.3831,265,589.3831,261,585.3831,265,594.3831" style="stroke:#181818;stroke-width:1.0;"/><text fill="#000000" font-family="sans-serif" font-size="13" lengthAdjust="spacing" textLength="33" x="266" y="573.1982">if final</text></g><!--link ATrack to Moving--><g id="link_ATrack_Moving"><path d="M613.67,489.3531 C644.64,471.9631 677,444.9831 677,408.2031 C677,223.7031 677,223.7031 677,223.7031 C677,168.5831 501.29,154.7531 404.76,151.3131 " fill="none" id="ATrack-to-Moving" style="stroke:#181818;stroke-width:1.0;"/><polygon fill="#181818" points="399.66,151.1431,408.5177,155.4492,404.6571,151.3145,408.7918,147.4539,399.66,151.1431" style="stroke:#181818;stroke-width:1.0;"/><text fill="#000000" font-family="sans-serif" font-size="13" lengthAdjust="spacing" textLength="85" x="678" y="322.6982">once complete</text></g><!--SRC=[lLJ1Yi8m4Btx5NCMQkz5X2ei2AkLfJSHYN7Q1ZKfQLftMVRVDubjJMjTF6qlJJ9l9c_cJGO089QaGbbWqAvWHHY73r4g76a058eel5k_xQ7vLg9YF0tgFyG2OY9JL2qWIfA5A6tmEQ4dB-AU3aDFi16Cts5hiP4YbLWK0OHZs12LjRPtGOuM7TWbhF5JzTpZKl80bWebKQn2kzTyN9feIIAyYIkHnzPooumbUt7GIth60gPJcWb6SJPxH4aaDCFZdvXSany2RCSxyBnPNQjU2Qt5fT7QEzmCwfOiI-0HQqn3Tpp4S6GnWP84gDq-zt0LqYvSG5xl7xKUej2g-18_8rL7lQO-jG2kPwE9GJYzqXohRaFs79e6va91FtOt7zE-4RVDsoASiquqmIdgYbxoCoeSQF8cczpjywPrZ2sqCMsbzNDu2dFIlI6DB8Dlny9r1rfWmZWvjvZm5Vu_erw-0MotcL9v4VX-obHM7YRQmO-_q9kNzAJ3PEJYhnOwYFTEhjnRYIlAVLJBl0yhmOv4t-ChYUXVzC3nbnUIOk4JPIwO55Lw7pdTuM4dqsutkjF_PphrZAef_080]--></g></svg>